# File created by Blade
# Date/Time:  Wed Sep 24 20:26:02 2014
# Frame Rate: 120.000 fps
#------------------------------------------------------
:FULLY-SPECIFIED
:DEGREES
1273
root -6.446077 32.828649 -2.222108 373.747528 -74.245604 -365.064231
Spine -10.116543 6.894973 0.712048
Head -4.142787 44.540985 10.420916
LeftShoulder -18.989525 17.616124 26.263541
LeftArm 15.347064 -23.112471 -28.401262
LeftForeArm 15.251007 0.000000 12.212743
LeftHand -27.202400 -0.000000 -8.222156
LeftHandThumb1 -26.253704 0.000000 33.147579
RightShoulder -21.894719 13.522571 -40.697449
RightArm -15.829373 8.020935 28.130202
RightForeArm -32.158381 -0.000000 14.512666
RightHand -14.554346 -0.000000 9.142615
RightHandThumb1 -24.326973 -0.000000 -32.862282
LeftUpLeg -5.839681 3.609097 0.763370
LeftLeg -3.652911 -0.000000 0.000000
LeftFoot -5.845045 2.733197 -18.380647
LeftToeBase 6.042745 -0.000000 -0.000000
RightUpLeg -1.970505 -7.096379 -0.210201
RightLeg 0.395527 -0.000000 -0.000000
RightFoot -10.266558 -2.929551 -2.416023
RightToeBase -1.452476 -0.000000 0.000000
1274
root -6.447324 32.827789 -2.219349 373.703306 -74.259307 -365.034124
Spine -10.083827 6.855271 0.700405
Head -4.065267 44.907122 10.430812
LeftShoulder -18.971511 17.607894 26.235463
LeftArm 15.427409 -23.192873 -28.412674
LeftForeArm 15.386065 -0.000000 12.223180
LeftHand -27.335095 0.000000 -8.228468
LeftHandThumb1 -26.253704 0.000000 33.147579
RightShoulder -21.885687 13.498077 -40.664845
RightArm -15.715310 7.875680 28.083213
RightForeArm -32.073509 -0.000000 14.567510
RightHand -14.636528 -0.000000 8.929103
RightHandThumb1 -24.326973 -0.000000 -32.862282
LeftUpLeg -5.837588 3.685477 0.737476
LeftLeg -3.614512 -0.000000 0.000000
LeftFoot -5.863903 2.685946 -18.351099
LeftToeBase 6.052152 -0.000000 -0.000000
RightUpLeg -1.963359 -7.093791 -0.225356
RightLeg 0.418320 -0.000000 -0.000000
RightFoot -10.292037 -2.935335 -2.420223
RightToeBase -1.429776 -0.000000 0.000000
1275
root -6.450378 32.827208 -2.215954 373.668089 -74.272332 -365.023178
Spine -10.045290 6.811037 0.707148
Head -4.001897 45.240669 10.416261
LeftShoulder -18.977356 17.633304 26.158122
LeftArm 15.498146 -23.197042 -28.350302
LeftForeArm 15.360374 0.000000 12.239436
LeftHand -27.385151 -0.000000 -8.146351
LeftHandThumb1 -26.253704 0.000000 33.147579
RightShoulder -21.869028 13.515711 -40.649734
RightArm -15.618868 7.768778 27.987865
RightForeArm -32.091643 -0.000000 14.593011
RightHand -14.586199 -0.000000 8.891224
RightHandThumb1 -24.326973 -0.000000 -32.862282
LeftUpLeg -5.818527 3.781044 0.715452
LeftLeg -3.588980 -0.000000 0.000000
LeftFoot -5.857493 2.610489 -18.303944
LeftToeBase 6.052909 -0.000000 -0.000000
RightUpLeg -1.945365 -7.083573 -0.235869
RightLeg 0.442178 -0.000000 -0.000000
RightFoot -10.296892 -2.960187 -2.463496
RightToeBase -1.484010 -0.000000 0.000000
1276
root -6.452651 32.826760 -2.212965 373.651800 -74.297807 -365.019117
Spine -10.021821 6.786296 0.695119
Head -3.915108 45.585494 10.445571
LeftShoulder -19.039901 17.721619 26.126343
LeftArm 15.662062 -23.133644 -28.357080
LeftForeArm 15.266503 -0.000000 12.281444
LeftHand -27.447131 -0.000000 -8.129767
LeftHandThumb1 -26.253704 0.000000 33.147579
RightShoulder -21.860818 13.468075 -40.628897
RightArm -15.484009 7.749523 27.932366
RightForeArm -32.127337 -0.000000 14.613135
RightHand -14.545846 0.000000 8.812069
RightHandThumb1 -24.326973 -0.000000 -32.862282
LeftUpLeg -5.813491 3.877745 0.692521
LeftLeg -3.557390 -0.000000 0.000000
LeftFoot -5.865584 2.550046 -18.281721
LeftToeBase 6.034991 -0.000000 -0.000000
RightUpLeg -1.949889 -7.076247 -0.245321
RightLeg 0.483784 -0.000000 -0.000000
RightFoot -10.324161 -2.951799 -2.471856
RightToeBase -1.485883 -0.000000 0.000000
1277
root -6.455727 32.825951 -2.210978 373.630714 -74.313535 -365.016029
Spine -9.995368 6.758049 0.693870
Head -3.884981 45.901414 10.388603
LeftShoulder -19.039647 17.716467 26.081930
LeftArm 15.719775 -23.184302 -28.333228
LeftForeArm 15.302911 -0.000000 12.302335
LeftHand -27.469730 -0.000000 -8.039552
LeftHandThumb1 -26.253704 0.000000 33.147579
RightShoulder -21.838489 13.465749 -40.642211
RightArm -15.407525 7.611876 27.874457
RightForeArm -32.074422 -0.000000 14.625923
RightHand -14.548617 -0.000000 8.727208
RightHandThumb1 -24.326973 -0.000000 -32.862282
LeftUpLeg -5.806943 3.957681 0.678167
LeftLeg -3.519972 -0.000000 0.000000
LeftFoot -5.873490 2.492439 -18.263030
LeftToeBase 6.051542 -0.000000 -0.000000
RightUpLeg -1.941416 -7.066232 -0.251669
RightLeg 0.510062 -0.000000 -0.000000
RightFoot -10.339084 -2.959846 -2.481953
RightToeBase -1.509953 -0.000000 0.000000
1278
root -6.458670 32.825178 -2.208302 373.603016 -74.335692 -365.009590
Spine -9.956885 6.741708 0.680069
Head -3.863863 46.163657 10.349589
LeftShoulder -19.082174 17.706936 26.049354
LeftArm 15.857009 -23.297213 -28.365565
LeftForeArm 15.387222 -0.000000 12.293325
LeftHand -27.437568 -0.000000 -8.040744
LeftHandThumb1 -26.253704 0.000000 33.147579
RightShoulder -21.820805 13.449518 -40.644031
RightArm -15.342683 7.570429 27.823133
RightForeArm -32.069444 0.000000 14.679149
RightHand -14.669625 -0.000000 8.714118
RightHandThumb1 -24.326973 -0.000000 -32.862282
LeftUpLeg -5.792130 4.026287 0.662023
LeftLeg -3.490818 -0.000000 0.000000
LeftFoot -5.881619 2.457561 -18.257311
LeftToeBase 6.012431 -0.000000 -0.000000
RightUpLeg -1.926103 -7.019470 -0.261962
RightLeg 0.531123 -0.000000 -0.000000
RightFoot -10.359698 -2.998375 -2.494799
RightToeBase -1.484498 -0.000000 0.000000
1279
root -6.463098 32.824840 -2.206743 373.597070 -74.349639 -365.034803
Spine -9.911047 6.729409 0.671287
Head -3.808377 46.423630 10.330497
LeftShoulder -19.089132 17.690596 26.043777
LeftArm 15.908967 -23.305755 -28.363149
LeftForeArm 15.365211 -0.000000 12.354917
LeftHand -27.540934 -0.000000 -8.026955
LeftHandThumb1 -26.253704 0.000000 33.147579
RightShoulder -21.809615 13.463659 -40.624733
RightArm -15.275497 7.458505 27.731440
RightForeArm -32.056632 0.000000 14.681077
RightHand -14.596941 -0.000000 8.567013
RightHandThumb1 -24.326973 -0.000000 -32.862282
LeftUpLeg -5.760561 4.075044 0.662345
LeftLeg -3.474741 -0.000000 0.000000
LeftFoot -5.895821 2.416807 -18.256290
LeftToeBase 6.093864 -0.000000 -0.000000
RightUpLeg -1.910787 -7.031651 -0.260783
RightLeg 0.573803 -0.000000 -0.000000
RightFoot -10.377878 -2.989122 -2.528223
RightToeBase -1.454531 -0.000000 0.000000
1280
root -6.467999 32.824286 -2.205362 373.588716 -74.374939 -365.054603
Spine -9.871971 6.743890 0.642123
Head -3.760917 46.669740 10.326840
LeftShoulder -19.075238 17.662070 26.059214
LeftArm 15.920061 -23.218555 -28.320686
LeftForeArm 15.273995 -0.000000 12.409038
LeftHand -27.528727 -0.000000 -7.979139
LeftHandThumb1 -26.253704 0.000000 33.147579
RightShoulder -21.806957 13.452392 -40.617376
RightArm -15.231710 7.444871 27.661279
RightForeArm -32.032931 -0.000000 14.719300
RightHand -14.663464 -0.000000 8.646896
RightHandThumb1 -24.326973 -0.000000 -32.862282
LeftUpLeg -5.723905 4.129713 0.659602
LeftLeg -3.471670 -0.000000 0.000000
LeftFoot -5.900606 2.400197 -18.238812
LeftToeBase 6.228031 -0.000000 -0.000000
RightUpLeg -1.895901 -7.029417 -0.262617
RightLeg 0.609173 -0.000000 -0.000000
RightFoot -10.401761 -2.982869 -2.539227
RightToeBase -1.487439 -0.000000 0.000000
1281
root -6.470915 32.822899 -2.203197 373.519536 -74.391402 -365.002031
Spine -9.837154 6.740521 0.598354
Head -3.733184 46.887737 10.313763
LeftShoulder -19.094542 17.656771 26.056821
LeftArm 16.001376 -23.206252 -28.315129
LeftForeArm 15.240490 0.000000 12.413363
LeftHand -27.495583 -0.000000 -7.884031
LeftHandThumb1 -26.253704 0.000000 33.147579
RightShoulder -21.820156 13.465514 -40.630215
RightArm -15.177168 7.398585 27.611111
RightForeArm -31.988220 0.000000 14.725717
RightHand -14.591304 -0.000000 8.524869
RightHandThumb1 -24.326973 -0.000000 -32.862282
LeftUpLeg -5.704863 4.171034 0.636163
LeftLeg -3.454102 -0.000000 0.000000
LeftFoot -5.914862 2.372663 -18.241341
LeftToeBase 6.275388 -0.000000 -0.000000
RightUpLeg -1.882359 -6.994063 -0.283765
RightLeg 0.631305 -0.000000 -0.000000
RightFoot -10.436052 -3.023335 -2.559046
RightToeBase -1.428916 -0.000000 0.000000
1282
root -6.476080 32.821884 -2.201397 373.514824 -74.416994 -365.027714
Spine -9.798676 6.768196 0.571578
Head -3.707594 47.039891 10.314030
LeftShoulder -19.076742 17.621771 26.060245
LeftArm 16.020282 -23.145797 -28.271339
LeftForeArm 15.187863 0.000000 12.448172
LeftHand -27.547637 -0.000000 -7.822128
LeftHandThumb1 -26.253704 0.000000 33.147579
RightShoulder -21.836745 13.463170 -40.654575
RightArm -15.153369 7.444875 27.570081
RightForeArm -32.063424 0.000000 14.787721
RightHand -14.583911 -0.000000 8.568373
RightHandThumb1 -24.326973 -0.000000 -32.862282
LeftUpLeg -5.651156 4.207740 0.641273
LeftLeg -3.478016 -0.000000 0.000000
LeftFoot -5.898878 2.349757 -18.256466
LeftToeBase 6.216880 -0.000000 -0.000000
RightUpLeg -1.855232 -6.957590 -0.286902
RightLeg 0.653820 -0.000000 -0.000000
RightFoot -10.446681 -3.040004 -2.566851
RightToeBase -1.460281 -0.000000 0.000000
